{
    "asset" : {
        "generator" : "Khronos glTF Blender I/O v1.1.46",
        "version" : "2.0"
    },
    "scene" : 0,
    "scenes" : [
        {
            "name" : "Scene",
            "nodes" : [
                0,
                1,
                2,
                3,
                4,
                5,
                6
            ]
        }
    ],
    "nodes" : [
        {
            "mesh" : 0,
            "name" : "Cube",
            "translation" : [
                -0.9753358960151672,
                0.5,
                -2.024106502532959
            ]
        },
        {
            "mesh" : 1,
            "name" : "Pyramid",
            "translation" : [
                1.3241748809814453,
                0.5,
                -2.0150561332702637
            ]
        },
        {
            "mesh" : 2,
            "name" : "Cylinder",
            "translation" : [
                -2.946317195892334,
                0.5,
                -1.4382045269012451
            ]
        },
        {
            "mesh" : 3,
            "name" : "Sphere",
            "translation" : [
                3.0712687969207764,
                0.49999988079071045,
                -1.3995410203933716
            ]
        },
        {
            "mesh" : 4,
            "name" : "Ground",
            "scale" : [
                4,
                1,
                3
            ]
        },
        {
            "mesh" : 5,
            "name" : "Walls",
            "rotation" : [
                0,
                0.7071067690849304,
                0,
                0.7071067690849304
            ],
            "scale" : [
                3,
                0.8032181262969971,
                3
            ],
            "translation" : [
                0.9999997615814209,
                0,
                0
            ]
        },
        {
            "mesh" : 6,
            "name" : "Board",
            "scale" : [
                1,
                0.5,
                0.026744604110717773
            ],
            "translation" : [
                0,
                1.5,
                3
            ]
        }
    ],
    "materials" : [
        {
            "doubleSided" : true,
            "emissiveFactor" : [
                0,
                0,
                0
            ],
            "name" : "Material",
            "pbrMetallicRoughness" : {
                "baseColorFactor" : [
                    0.800000011920929,
                    0.800000011920929,
                    0.800000011920929,
                    1
                ],
                "metallicFactor" : 0,
                "roughnessFactor" : 0.4000000059604645
            }
        }
    ],
    "meshes" : [
        {
            "name" : "Cube",
            "primitives" : [
                {
                    "attributes" : {
                        "POSITION" : 0,
                        "NORMAL" : 1,
                        "TEXCOORD_0" : 2
                    },
                    "indices" : 3
                }
            ]
        },
        {
            "name" : "Pyramid",
            "primitives" : [
                {
                    "attributes" : {
                        "POSITION" : 4,
                        "NORMAL" : 5,
                        "TEXCOORD_0" : 6
                    },
                    "indices" : 7,
                    "material" : 0
                }
            ]
        },
        {
            "name" : "Cylinder",
            "primitives" : [
                {
                    "attributes" : {
                        "POSITION" : 8,
                        "NORMAL" : 9,
                        "TEXCOORD_0" : 10
                    },
                    "indices" : 11
                }
            ]
        },
        {
            "name" : "Sphere",
            "primitives" : [
                {
                    "attributes" : {
                        "POSITION" : 12,
                        "NORMAL" : 13,
                        "TEXCOORD_0" : 14
                    },
                    "indices" : 15
                }
            ]
        },
        {
            "name" : "Ground",
            "primitives" : [
                {
                    "attributes" : {
                        "POSITION" : 16,
                        "NORMAL" : 17,
                        "TEXCOORD_0" : 18
                    },
                    "indices" : 19
                }
            ]
        },
        {
            "name" : "Walls",
            "primitives" : [
                {
                    "attributes" : {
                        "POSITION" : 20,
                        "NORMAL" : 21,
                        "TEXCOORD_0" : 22
                    },
                    "indices" : 23
                }
            ]
        },
        {
            "name" : "Board",
            "primitives" : [
                {
                    "attributes" : {
                        "POSITION" : 24,
                        "NORMAL" : 25,
                        "TEXCOORD_0" : 26
                    },
                    "indices" : 27
                }
            ]
        }
    ],
    "accessors" : [
        {
            "bufferView" : 0,
            "componentType" : 5126,
            "count" : 143,
            "max" : [
                0.5,
                0.5,
                0.5
            ],
            "min" : [
                -0.5,
                -0.5,
                -0.5
            ],
            "type" : "VEC3"
        },
        {
            "bufferView" : 1,
            "componentType" : 5126,
            "count" : 143,
            "type" : "VEC3"
        },
        {
            "bufferView" : 2,
            "componentType" : 5126,
            "count" : 143,
            "type" : "VEC2"
        },
        {
            "bufferView" : 3,
            "componentType" : 5123,
            "count" : 564,
            "type" : "SCALAR"
        },
        {
            "bufferView" : 4,
            "componentType" : 5126,
            "count" : 109,
            "max" : [
                0.49999988079071045,
                0.5000002980232239,
                0.5
            ],
            "min" : [
                -0.49999988079071045,
                -0.4999999403953552,
                -0.5
            ],
            "type" : "VEC3"
        },
        {
            "bufferView" : 5,
            "componentType" : 5126,
            "count" : 109,
            "type" : "VEC3"
        },
        {
            "bufferView" : 6,
            "componentType" : 5126,
            "count" : 109,
            "type" : "VEC2"
        },
        {
            "bufferView" : 7,
            "componentType" : 5123,
            "count" : 372,
            "type" : "SCALAR"
        },
        {
            "bufferView" : 8,
            "componentType" : 5126,
            "count" : 484,
            "max" : [
                0.5,
                0.5,
                0.5
            ],
            "min" : [
                -0.5,
                -0.5,
                -0.5
            ],
            "type" : "VEC3"
        },
        {
            "bufferView" : 9,
            "componentType" : 5126,
            "count" : 484,
            "type" : "VEC3"
        },
        {
            "bufferView" : 10,
            "componentType" : 5126,
            "count" : 484,
            "type" : "VEC2"
        },
        {
            "bufferView" : 11,
            "componentType" : 5123,
            "count" : 1524,
            "type" : "SCALAR"
        },
        {
            "bufferView" : 12,
            "componentType" : 5126,
            "count" : 559,
            "max" : [
                0.5000001192092896,
                0.5,
                0.5000001788139343
            ],
            "min" : [
                -0.49999991059303284,
                -0.5,
                -0.5
            ],
            "type" : "VEC3"
        },
        {
            "bufferView" : 13,
            "componentType" : 5126,
            "count" : 559,
            "type" : "VEC3"
        },
        {
            "bufferView" : 14,
            "componentType" : 5126,
            "count" : 559,
            "type" : "VEC2"
        },
        {
            "bufferView" : 15,
            "componentType" : 5123,
            "count" : 2880,
            "type" : "SCALAR"
        },
        {
            "bufferView" : 16,
            "componentType" : 5126,
            "count" : 4,
            "max" : [
                1,
                0,
                1
            ],
            "min" : [
                -1,
                0,
                -1
            ],
            "type" : "VEC3"
        },
        {
            "bufferView" : 17,
            "componentType" : 5126,
            "count" : 4,
            "type" : "VEC3"
        },
        {
            "bufferView" : 18,
            "componentType" : 5126,
            "count" : 4,
            "type" : "VEC2"
        },
        {
            "bufferView" : 19,
            "componentType" : 5123,
            "count" : 6,
            "type" : "SCALAR"
        },
        {
            "bufferView" : 20,
            "componentType" : 5126,
            "count" : 50,
            "max" : [
                1.0000001192092896,
                3.1124794483184814,
                1.000000238418579
            ],
            "min" : [
                -1,
                0,
                -1.8402327299118042
            ],
            "type" : "VEC3"
        },
        {
            "bufferView" : 21,
            "componentType" : 5126,
            "count" : 50,
            "type" : "VEC3"
        },
        {
            "bufferView" : 22,
            "componentType" : 5126,
            "count" : 50,
            "type" : "VEC2"
        },
        {
            "bufferView" : 23,
            "componentType" : 5123,
            "count" : 90,
            "type" : "SCALAR"
        },
        {
            "bufferView" : 24,
            "componentType" : 5126,
            "count" : 56,
            "max" : [
                1.644898772239685,
                1.3901100158691406,
                -0.6986911296844482
            ],
            "min" : [
                -1.644898772239685,
                -1.8996875286102295,
                -2.6986911296844482
            ],
            "type" : "VEC3"
        },
        {
            "bufferView" : 25,
            "componentType" : 5126,
            "count" : 56,
            "type" : "VEC3"
        },
        {
            "bufferView" : 26,
            "componentType" : 5126,
            "count" : 56,
            "type" : "VEC2"
        },
        {
            "bufferView" : 27,
            "componentType" : 5123,
            "count" : 84,
            "type" : "SCALAR"
        }
    ],
    "bufferViews" : [
        {
            "buffer" : 0,
            "byteLength" : 1716,
            "byteOffset" : 0
        },
        {
            "buffer" : 0,
            "byteLength" : 1716,
            "byteOffset" : 1716
        },
        {
            "buffer" : 0,
            "byteLength" : 1144,
            "byteOffset" : 3432
        },
        {
            "buffer" : 0,
            "byteLength" : 1128,
            "byteOffset" : 4576
        },
        {
            "buffer" : 0,
            "byteLength" : 1308,
            "byteOffset" : 5704
        },
        {
            "buffer" : 0,
            "byteLength" : 1308,
            "byteOffset" : 7012
        },
        {
            "buffer" : 0,
            "byteLength" : 872,
            "byteOffset" : 8320
        },
        {
            "buffer" : 0,
            "byteLength" : 744,
            "byteOffset" : 9192
        },
        {
            "buffer" : 0,
            "byteLength" : 5808,
            "byteOffset" : 9936
        },
        {
            "buffer" : 0,
            "byteLength" : 5808,
            "byteOffset" : 15744
        },
        {
            "buffer" : 0,
            "byteLength" : 3872,
            "byteOffset" : 21552
        },
        {
            "buffer" : 0,
            "byteLength" : 3048,
            "byteOffset" : 25424
        },
        {
            "buffer" : 0,
            "byteLength" : 6708,
            "byteOffset" : 28472
        },
        {
            "buffer" : 0,
            "byteLength" : 6708,
            "byteOffset" : 35180
        },
        {
            "buffer" : 0,
            "byteLength" : 4472,
            "byteOffset" : 41888
        },
        {
            "buffer" : 0,
            "byteLength" : 5760,
            "byteOffset" : 46360
        },
        {
            "buffer" : 0,
            "byteLength" : 48,
            "byteOffset" : 52120
        },
        {
            "buffer" : 0,
            "byteLength" : 48,
            "byteOffset" : 52168
        },
        {
            "buffer" : 0,
            "byteLength" : 32,
            "byteOffset" : 52216
        },
        {
            "buffer" : 0,
            "byteLength" : 12,
            "byteOffset" : 52248
        },
        {
            "buffer" : 0,
            "byteLength" : 600,
            "byteOffset" : 52260
        },
        {
            "buffer" : 0,
            "byteLength" : 600,
            "byteOffset" : 52860
        },
        {
            "buffer" : 0,
            "byteLength" : 400,
            "byteOffset" : 53460
        },
        {
            "buffer" : 0,
            "byteLength" : 180,
            "byteOffset" : 53860
        },
        {
            "buffer" : 0,
            "byteLength" : 672,
            "byteOffset" : 54040
        },
        {
            "buffer" : 0,
            "byteLength" : 672,
            "byteOffset" : 54712
        },
        {
            "buffer" : 0,
            "byteLength" : 448,
            "byteOffset" : 55384
        },
        {
            "buffer" : 0,
            "byteLength" : 168,
            "byteOffset" : 55832
        }
    ],
    "buffers" : [
        {
            "byteLength" : 56000,
            "uri" : "data:application/octet-stream;base64,"
        }
    ]
}
